<svg xmlns="http://www.w3.org/2000/svg" viewBox="0 0 512 512" width="512" height="512">
  <defs>
    <!-- Background Gradient -->
    <linearGradient id="bgGrad" x1="0%" y1="0%" x2="100%" y2="100%">
      <stop offset="0%" stop-color="#4f46e5" />
      <stop offset="100%" stop-color="#6366f1" />
    </linearGradient>
    
    <!-- Accent Gradient -->
    <linearGradient id="accentGrad" x1="0%" y1="100%" x2="100%" y2="0%">
      <stop offset="0%" stop-color="#818cf8" stop-opacity="0.8" />
      <stop offset="100%" stop-color="#c7d2fe" stop-opacity="0.5" />
    </linearGradient>

    <!-- Shadow Filter for modern depth -->
    <filter id="shadow" x="-10%" y="-10%" width="120%" height="120%">
      <feDropShadow dx="0" dy="8" stdDeviation="12" flood-color="#0f172a" flood-opacity="0.25" />
    </filter>
  </defs>

  <!-- Ground App Icon Shape (Maskable Safe) -->
  <rect width="512" height="512" rx="112" fill="url(#bgGrad)" />

  <!-- Outer Stylized Accent Ring -->
  <rect x="24" y="24" width="464" height="464" rx="92" fill="none" stroke="url(#accentGrad)" stroke-width="4" stroke-dasharray="16 12" opacity="0.4" />

  <!-- Inner Decorative Graphics (Ruler Scale & Arrow Loops) -->
  <g filter="url(#shadow)" transform="translate(64, 64)">
    <!-- App Main Glassmorphic Panel -->
    <rect x="0" y="0" width="384" height="384" rx="64" fill="white" fill-opacity="0.08" stroke="white" stroke-opacity="0.15" stroke-width="2" />

    <!-- Ruler Tick Marks (Top Border Layout) -->
    <line x1="48" y1="48" x2="48" y2="72" stroke="#ffffff" stroke-width="6" stroke-linecap="round" opacity="0.9" />
    <line x1="86" y1="48" x2="86" y2="60" stroke="#ffffff" stroke-width="4" stroke-linecap="round" opacity="0.7" />
    <line x1="124" y1="48" x2="124" y2="60" stroke="#ffffff" stroke-width="4" stroke-linecap="round" opacity="0.7" />
    <line x1="162" y1="48" x2="162" y2="60" stroke="#ffffff" stroke-width="4" stroke-linecap="round" opacity="0.7" />
    
    <line x1="200" y1="48" x2="200" y2="76" stroke="#ffffff" stroke-width="6" stroke-linecap="round" opacity="0.9" />
    
    <line x1="238" y1="48" x2="238" y2="60" stroke="#ffffff" stroke-width="4" stroke-linecap="round" opacity="0.7" />
    <line x1="276" y1="48" x2="276" y2="60" stroke="#ffffff" stroke-width="4" stroke-linecap="round" opacity="0.7" />
    <line x1="314" y1="48" x2="314" y2="60" stroke="#ffffff" stroke-width="4" stroke-linecap="round" opacity="0.7" />
    <line x1="336" y1="48" x2="336" y2="72" stroke="#ffffff" stroke-width="6" stroke-linecap="round" opacity="0.9" />

    <!-- Centered Meters & Feet Text Symbol Graphics -->
    <g transform="translate(192, 202)">
      <!-- Left side: m (meters) -->
      <text x="-70" y="20" font-family="-apple-system, BlinkMacSystemFont, 'Segoe UI', Roboto, sans-serif" font-size="76" font-weight="900" fill="#ffffff" text-anchor="middle" letter-spacing="-2">m</text>
      
      <!-- Right side: ft (feet) -->
      <text x="75" y="20" font-family="-apple-system, BlinkMacSystemFont, 'Segoe UI', Roboto, sans-serif" font-size="76" font-weight="900" fill="#a5b4fc" text-anchor="middle" letter-spacing="-2">ft</text>

      <!-- Center Swap Graphic: ⇄ Symbol in Elegant Custom Arrows -->
      <g stroke="#ffffff" stroke-width="8" stroke-linecap="round" stroke-linejoin="round" fill="none">
        <!-- Right Arrow -->
        <path d="M -20 -18 L 22 -18" opacity="0.8" />
        <path d="M 10 -28 L 22 -18 L 10 -8" opacity="0.8" />

        <!-- Left Arrow -->
        <path d="M 20 22 L -22 22" opacity="0.9" stroke="#cbd5e1" />
        <path d="M -10 12 L -22 22 L -10 32" opacity="0.9" stroke="#cbd5e1" />
      </g>
    </g>

    <!-- Bottom Sparkle / Deco -->
    <circle cx="192" cy="320" r="4" fill="#818cf8" opacity="0.8" />
    <circle cx="152" cy="320" r="2" fill="#818cf8" opacity="0.4" />
    <circle cx="232" cy="320" r="2" fill="#818cf8" opacity="0.4" />
  </g>
</svg>
